# xmcd
#
# Track frame offsets:
#	150
#	17570
#	35410
#	53757
#	71270
#	86515
#	104000
#	122900
#
# Disc length: 1843 seconds
#
# Revision: 0
# Processed by: cddbd v1.5.2PL0 Copyright (c) Steve Scherf et al.
# Submitted via: EasyCDDAExtractor 15.3.0.1
#
DISCID=62073108
DTITLE=Lourdes Robles - Noche Tras Noche
DYEAR=1989
DGENRE=Latin
TTITLE0=Haz Una Hoguera
TTITLE1=Yo No Sabia
TTITLE2=Nos Quedamos Tu Y Yo
TTITLE3=Noche Tras Noche
TTITLE4=Vida
TTITLE5=Corazon En Blanco
TTITLE6=Parate Al Stop
TTITLE7=Es Una Linda Tarde
EXTD=
EXTT0=
EXTT1=
EXTT2=
EXTT3=
EXTT4=
EXTT5=
EXTT6=
EXTT7=
PLAYORDER=
